<svg width="19" height="19" viewBox="0 0 19 19" fill="none" xmlns="http://www.w3.org/2000/svg">
<path d="M5.7 8.54782C5.7 8.29587 5.80009 8.05423 5.97825 7.87607C6.15641 7.69791 6.39805 7.59782 6.65 7.59782H12.35C12.602 7.59782 12.8436 7.69791 13.0217 7.87607C13.1999 8.05423 13.3 8.29587 13.3 8.54782C13.3 8.79978 13.1999 9.04141 13.0217 9.21957C12.8436 9.39773 12.602 9.49782 12.35 9.49782H6.65C6.39805 9.49782 6.15641 9.39773 5.97825 9.21957C5.80009 9.04141 5.7 8.79978 5.7 8.54782ZM6.65 11.3978C6.39805 11.3978 6.15641 11.4979 5.97825 11.6761C5.80009 11.8542 5.7 12.0959 5.7 12.3478C5.7 12.5998 5.80009 12.8414 5.97825 13.0196C6.15641 13.1977 6.39805 13.2978 6.65 13.2978H10.45C10.702 13.2978 10.9436 13.1977 11.1217 13.0196C11.2999 12.8414 11.4 12.5998 11.4 12.3478C11.4 12.0959 11.2999 11.8542 11.1217 11.6761C10.9436 11.4979 10.702 11.3978 10.45 11.3978H6.65ZM1.06895e-05 9.49782C0.000487166 7.41504 0.685418 5.39014 1.94939 3.73474C3.21337 2.07934 4.98633 0.885204 6.99542 0.336101C9.00452 -0.213002 11.1384 -0.0866366 13.0686 0.695751C14.9989 1.47814 16.6185 2.87318 17.6783 4.66619C18.738 6.4592 19.1792 8.55079 18.9338 10.6191C18.6885 12.6873 17.7703 14.6177 16.3204 16.113C14.8706 17.6083 12.9695 18.5857 10.9098 18.8948C8.85009 19.2039 6.74588 18.8275 4.92101 17.8236L1.22741 18.9484C1.06266 18.9986 0.887371 19.0031 0.720287 18.9613C0.553202 18.9196 0.40061 18.8332 0.278831 18.7114C0.157052 18.5896 0.0706677 18.437 0.0289186 18.2699C-0.0128306 18.1029 -0.00837445 17.9276 0.0418106 17.7628L1.16661 14.0635C0.398924 12.6644 -0.00238795 11.0938 1.06895e-05 9.49782ZM9.5 1.89783C8.15088 1.89772 6.82605 2.25673 5.66158 2.93799C4.49711 3.61926 3.53498 4.59822 2.874 5.77432C2.21302 6.95043 1.87703 8.28128 1.90052 9.63019C1.92402 10.9791 2.30617 12.2974 3.00771 13.4498C3.07735 13.5643 3.12198 13.6922 3.13868 13.8252C3.15538 13.9581 3.14377 14.0931 3.10461 14.2212L2.37691 16.6133L4.76521 15.8856C4.89376 15.8465 5.02915 15.835 5.16246 15.852C5.29576 15.8691 5.42393 15.9142 5.5385 15.9844C6.54014 16.596 7.6698 16.9672 8.83893 17.0691C10.0081 17.171 11.1849 17.0008 12.2772 16.5717C13.3696 16.1427 14.3477 15.4665 15.135 14.5962C15.9223 13.7259 16.4973 12.6851 16.815 11.5553C17.1327 10.4256 17.1845 9.2376 16.9662 8.08451C16.748 6.93141 16.2657 5.84452 15.5571 4.90902C14.8485 3.97352 13.9329 3.21482 12.882 2.6924C11.8311 2.16997 10.6736 1.89801 9.5 1.89783Z" fill="#2D655E"/>
</svg>
