<svg width="26" height="22" viewBox="0 0 26 22" fill="none" xmlns="http://www.w3.org/2000/svg">
<path d="M19.0185 0C16.4378 0 14.2133 1.21837 13 3.23663C11.7867 1.21837 9.56222 0 6.98148 0C5.13056 0.00221492 3.35609 0.733553 2.04729 2.0336C0.738493 3.33364 0.00222983 5.09624 0 6.93478C0 10.3531 2.16667 13.9258 6.42778 17.551C8.39524 19.214 10.5196 20.6847 12.7713 21.9426C12.8416 21.9803 12.9202 22 13 22C13.0798 22 13.1584 21.9803 13.2287 21.9426C15.4804 20.6847 17.6048 19.214 19.5722 17.551C23.8333 13.9258 26 10.3531 26 6.93478C25.9978 5.09624 25.2615 3.33364 23.9527 2.0336C22.6439 0.733553 20.8694 0.00221492 19.0185 0ZM13 20.9741C11.3148 20.0224 0.962963 13.8779 0.962963 6.93478C0.964874 5.34983 1.59958 3.83034 2.72786 2.70961C3.85613 1.58888 5.38586 0.95842 6.98148 0.956521C9.5225 0.956521 11.6579 2.3088 12.5546 4.48489C12.5909 4.57261 12.6526 4.64763 12.7319 4.70044C12.8112 4.75324 12.9045 4.78143 13 4.78143C13.0955 4.78143 13.1888 4.75324 13.2681 4.70044C13.3474 4.64763 13.4091 4.57261 13.4454 4.48489C14.3421 2.3088 16.4775 0.956521 19.0185 0.956521C20.6141 0.95842 22.1439 1.58888 23.2721 2.70961C24.4004 3.83034 25.0351 5.34983 25.037 6.93478C25.037 13.8696 14.6852 20.0224 13 20.9741Z" fill="black"/>
</svg>
