<svg width="224" height="225" viewBox="0 0 224 225" fill="none" xmlns="http://www.w3.org/2000/svg">
<path d="M111.94 172.88C109.376 174.588 106.703 176.128 103.94 177.49V217C103.94 219.122 104.783 221.157 106.283 222.657C107.783 224.157 109.818 225 111.94 225C114.062 225 116.096 224.157 117.597 222.657C119.097 221.157 119.94 219.122 119.94 217V177.49C117.176 176.128 114.504 174.588 111.94 172.88Z" fill="#F7E9DF"/>
<path d="M182.1 47.6C176.313 33.7825 166.571 21.9834 154.099 13.6851C141.627 5.3869 126.981 0.959671 112 0.959671C97.0195 0.959671 82.3731 5.3869 69.901 13.6851C57.4288 21.9834 47.6872 33.7825 41.9 47.6C29.4472 53.3694 18.8939 62.5646 11.4741 74.1104C4.05432 85.6563 0.0745325 99.0758 4.33531e-05 112.8C-0.109957 151.62 31.36 184 70.14 185C81.8713 185.306 93.4983 182.727 104 177.49V141.94L60.42 120.16C58.5211 119.211 57.0771 117.546 56.4057 115.531C55.7343 113.517 55.8906 111.319 56.84 109.42C57.7895 107.521 59.4545 106.077 61.4686 105.406C63.4827 104.734 65.6811 104.891 67.58 105.84L104 124.06V73C104 70.8783 104.843 68.8434 106.343 67.3432C107.843 65.8429 109.878 65 112 65C114.122 65 116.157 65.8429 117.657 67.3432C119.157 68.8434 120 70.8783 120 73V100.06L156.42 81.84C157.36 81.3699 158.384 81.0895 159.433 81.015C160.481 80.9405 161.534 81.0732 162.531 81.4057C163.529 81.7381 164.451 82.2637 165.245 82.9525C166.039 83.6413 166.69 84.4797 167.16 85.42C167.63 86.3603 167.911 87.3839 167.985 88.4325C168.06 89.4811 167.927 90.5341 167.594 91.5314C167.262 92.5287 166.736 93.4508 166.048 94.245C165.359 95.0391 164.52 95.6899 163.58 96.16L120 117.94V177.49C129.938 182.446 140.895 185.018 152 185H153.86C192.64 184 224.11 151.64 224 112.82C223.933 99.0915 219.956 85.6663 212.536 74.1159C205.116 62.5655 194.558 53.3679 182.1 47.6Z" fill="#F7E9DF"/>
</svg>
