<svg width="22" height="19" viewBox="0 0 22 19" fill="none" xmlns="http://www.w3.org/2000/svg">
<path d="M21.6067 6.59737C21.4596 6.43487 21.2784 6.30455 21.0752 6.2151C20.872 6.12565 20.6514 6.07912 20.4281 6.07861H16.8562L11.589 0.257335C11.5153 0.176457 11.4246 0.111683 11.323 0.0673144C11.2214 0.0229461 11.1112 0 10.9998 0C10.8883 0 10.7781 0.0229461 10.6765 0.0673144C10.5749 0.111683 10.4842 0.176457 10.4105 0.257335L5.14336 6.07861H1.57137C1.34751 6.07861 1.12624 6.12489 0.922367 6.21433C0.718494 6.30378 0.53673 6.43433 0.389245 6.59725C0.241761 6.76016 0.131961 6.95168 0.0671974 7.15898C0.00243416 7.36628 -0.0157972 7.58458 0.0137241 7.79925L1.37495 17.6813C1.42541 18.0465 1.61128 18.3815 1.89798 18.6241C2.18468 18.8667 2.55269 19.0003 2.93358 19H19.0659C19.4468 19.0003 19.8148 18.8667 20.1015 18.6241C20.3882 18.3815 20.5741 18.0465 20.6246 17.6813L21.9868 7.8002C22.0158 7.58508 21.9969 7.36644 21.9314 7.15897C21.8658 6.9515 21.7551 6.76001 21.6067 6.59737ZM6.4427 15.9597C6.41621 15.9611 6.38965 15.9611 6.36315 15.9597C6.1677 15.9606 5.97889 15.8911 5.83361 15.7646C5.68833 15.6381 5.597 15.4637 5.57745 15.2756L5.02746 9.95503C5.00663 9.75445 5.06901 9.55408 5.20088 9.39799C5.33276 9.24191 5.52333 9.1429 5.73066 9.12274C5.938 9.10258 6.14513 9.16293 6.30647 9.2905C6.46782 9.41808 6.57017 9.60243 6.59101 9.80301L7.14099 15.1236C7.163 15.324 7.10179 15.5247 6.97084 15.6815C6.83988 15.8383 6.64991 15.9384 6.4427 15.9597ZM11.7855 15.1996C11.7855 15.4012 11.7027 15.5945 11.5553 15.7371C11.408 15.8796 11.2081 15.9597 10.9998 15.9597C10.7914 15.9597 10.5915 15.8796 10.4442 15.7371C10.2968 15.5945 10.2141 15.4012 10.2141 15.1996V9.87902C10.2141 9.67743 10.2968 9.4841 10.4442 9.34156C10.5915 9.19902 10.7914 9.11894 10.9998 9.11894C11.2081 9.11894 11.408 9.19902 11.5553 9.34156C11.7027 9.4841 11.7855 9.67743 11.7855 9.87902V15.1996ZM7.23135 6.07861L10.9998 1.91241L14.7682 6.07861H7.23135ZM16.9671 9.95503L16.4172 15.2756C16.3977 15.4629 16.3071 15.6366 16.1628 15.763C16.0186 15.8893 15.831 15.9594 15.6364 15.9597C15.6099 15.9611 15.5833 15.9611 15.5568 15.9597C15.4541 15.9497 15.3545 15.9202 15.2636 15.873C15.1727 15.8258 15.0923 15.7617 15.027 15.6844C14.9617 15.6071 14.9128 15.5182 14.883 15.4226C14.8533 15.327 14.8433 15.2267 14.8536 15.1274L15.4036 9.80681C15.4244 9.60623 15.5268 9.42188 15.6881 9.2943C15.8495 9.16673 16.0566 9.10638 16.2639 9.12654C16.4713 9.1467 16.6618 9.24571 16.7937 9.40179C16.9256 9.55788 16.988 9.75825 16.9671 9.95883V9.95503Z" fill="#2D655E"/>
</svg>
