<svg width="15" height="15" viewBox="0 0 15 15" fill="none" xmlns="http://www.w3.org/2000/svg">
<path d="M14.5918 6.82034L1.3 0.165457C1.19583 0.113286 1.07881 0.0923828 0.963044 0.105263C0.847277 0.118143 0.737696 0.164258 0.647496 0.238055C0.561356 0.310347 0.497061 0.405266 0.461839 0.512142C0.426618 0.619018 0.421866 0.733613 0.448119 0.843045L2.04918 6.7538H8.88239V7.96377H2.04918L0.423952 13.8564C0.399318 13.9478 0.396442 14.0437 0.415556 14.1364C0.434671 14.2291 0.475242 14.316 0.534008 14.3901C0.592773 14.4643 0.668093 14.5236 0.753912 14.5633C0.83973 14.603 0.933652 14.6219 1.02813 14.6187C1.12271 14.6181 1.21583 14.5953 1.3 14.5521L14.5918 7.89723C14.6908 7.84646 14.7739 7.76932 14.8319 7.67432C14.8898 7.57932 14.9205 7.47013 14.9205 7.35879C14.9205 7.24744 14.8898 7.13825 14.8319 7.04325C14.7739 6.94825 14.6908 6.87111 14.5918 6.82034Z" fill="#FEC480"/>
</svg>
